<?xml version="1.0" encoding="iso-8859-1"?>
<!-- Uploaded to: SVG Repo, www.svgrepo.com, Generator: SVG Repo Mixer Tools -->
<svg version="1.1" id="Layer_1" xmlns="http://www.w3.org/2000/svg" xmlns:xlink="http://www.w3.org/1999/xlink" 
	 viewBox="0 0 512 512" xml:space="preserve">
<path style="fill:#D35B38;" d="M379.447,501.801H91.025c-21.712,0-39.313-17.601-39.313-39.313V49.512
	c0-21.712,17.602-39.313,39.313-39.313h288.421v491.602H379.447z"/>
<rect x="379.451" y="10.199" style="fill:#CCCCCC;" width="80.839" height="491.602"/>
<polygon style="fill:#FFAD61;" points="343.396,151.125 295.328,112.889 249.445,151.125 249.445,10.199 343.396,10.199 "/>
<path style="fill:#CCCCCC;" d="M169.032,286.561L169.032,286.561c18.722-6.421,28.692-26.805,22.271-45.526l-8.668-25.27
	c-6.421-18.722-26.805-28.692-45.526-22.271l0,0c-18.722,6.421-28.692,26.805-22.271,45.526l8.668,25.27
	C129.928,283.012,150.311,292.983,169.032,286.561z"/>
<g>
	<path style="fill:#4D3D36;" d="M460.288,512c5.632,0,10.199-4.567,10.199-10.199V10.199C470.487,4.567,465.92,0,460.288,0H91.026
		C63.724,0,41.513,22.211,41.513,49.512v412.975c0,27.302,22.211,49.513,49.512,49.513L460.288,512L460.288,512z M333.196,20.398
		v109.58l-31.518-25.072c-1.86-1.479-4.105-2.217-6.35-2.217c-2.32,0-4.641,0.789-6.529,2.363l-29.155,24.296V20.398H333.196z
		 M61.911,462.487V49.512c0-16.054,13.061-29.114,29.115-29.114h148.221v130.726c0,3.957,2.29,7.558,5.873,9.236
		c1.381,0.647,2.857,0.963,4.324,0.963c2.342,0,4.661-0.807,6.531-2.363l39.504-32.919l41.568,33.066
		c3.065,2.439,7.251,2.906,10.781,1.205c3.526-1.701,5.768-5.271,5.768-9.186V20.398h15.653v471.203H91.026
		C74.972,491.602,61.911,478.54,61.911,462.487z M450.089,491.602h-60.444V20.398h20.023v385.264
		c0,5.632,4.567,10.199,10.199,10.199c5.632,0,10.199-4.567,10.199-10.199V20.398h20.022V491.602z"/>
	<path style="fill:#4D3D36;" d="M419.868,440.252c-5.632,0-10.199,4.567-10.199,10.199v7.651c0,5.632,4.567,10.199,10.199,10.199
		c5.632,0,10.199-4.567,10.199-10.199v-7.651C430.067,444.819,425.5,440.252,419.868,440.252z"/>
	<path style="fill:#4D3D36;" d="M321.734,221.35c-5.065-2.478-11.169-0.38-13.643,4.679l-22.333,45.655
		c-3.01,6.151-8.234,10.763-14.712,12.985c-3.103,1.064-6.314,1.512-9.496,1.366l37.54-76.74c2.475-5.06,0.38-11.168-4.679-13.643
		c-5.065-2.479-11.169-0.38-13.643,4.679l-37.536,76.731c-2.066-2.422-3.691-5.225-4.755-8.327
		c-2.222-6.478-1.788-13.432,1.221-19.583l22.332-45.655c2.475-5.06,0.38-11.168-4.679-13.643
		c-5.06-2.477-11.169-0.378-13.643,4.679l-22.333,45.655c-5.404,11.046-6.183,23.535-2.192,35.166
		c2.862,8.344,7.941,15.52,14.656,20.91l-29.799,60.915l-22.419-65.36c7.332-4.514,13.264-11.004,17.14-18.928
		c5.404-11.046,6.183-23.535,2.192-35.166l-8.668-25.27c-3.99-11.632-12.271-21.014-23.316-26.417
		c-11.047-5.403-23.535-6.183-35.167-2.192c-11.632,3.989-21.013,12.27-26.417,23.315c-5.404,11.047-6.183,23.536-2.192,35.167
		l8.668,25.269c3.99,11.632,12.271,21.014,23.316,26.417c6.396,3.128,13.274,4.707,20.19,4.707c1.653,0,3.309-0.1,4.961-0.28
		l29.036,84.649L158.4,450.47c-2.475,5.06-0.38,11.168,4.68,13.643c1.442,0.706,2.97,1.04,4.474,1.04c3.773,0,7.4-2.102,9.169-5.719
		l23.998-49.057l17.302,50.441c1.451,4.233,5.41,6.894,9.646,6.894c1.097,0,2.213-0.18,3.31-0.555
		c5.328-1.828,8.165-7.628,6.338-12.956l-23.92-69.737l38.759-79.231c3.462,0.823,6.991,1.243,10.532,1.242
		c5.029,0,10.079-0.834,14.976-2.514c11.631-3.989,21.013-12.27,26.416-23.315l22.333-45.655
		C328.89,229.934,326.794,223.826,321.734,221.35z M146.138,275.693c-6.151-3.009-10.763-8.234-12.985-14.712l-8.668-25.27
		c-2.222-6.478-1.788-13.432,1.221-19.583c3.009-6.151,8.234-10.763,14.712-12.985c2.727-0.936,5.539-1.4,8.341-1.4
		c3.851,0,7.683,0.878,11.244,2.62c6.151,3.01,10.763,8.235,12.985,14.712l8.668,25.27c2.222,6.479,1.788,13.433-1.221,19.585
		c-3.009,6.151-8.234,10.763-14.711,12.985l0,0C159.245,279.135,152.29,278.703,146.138,275.693z"/>
</g>
</svg>