<?xml version="1.0" encoding="UTF-8" standalone="no"?>
<!-- Uploaded to: SVG Repo, www.svgrepo.com, Generator: SVG Repo Mixer Tools -->

<svg
   width="800px"
   height="800px"
   viewBox="0 0 40 40"
   fill="none"
   version="1.1"
   id="svg3"
   sodipodi:docname="edit-price.svg"
   inkscape:version="1.3.2 (091e20e, 2023-11-25, custom)"
   xmlns:inkscape="http://www.inkscape.org/namespaces/inkscape"
   xmlns:sodipodi="http://sodipodi.sourceforge.net/DTD/sodipodi-0.dtd"
   xmlns="http://www.w3.org/2000/svg"
   xmlns:svg="http://www.w3.org/2000/svg">
  <defs
     id="defs3" />
  <sodipodi:namedview
     id="namedview3"
     pagecolor="#ffffff"
     bordercolor="#000000"
     borderopacity="0.25"
     inkscape:showpageshadow="2"
     inkscape:pageopacity="0.0"
     inkscape:pagecheckerboard="0"
     inkscape:deskcolor="#d1d1d1"
     inkscape:zoom="0.79125"
     inkscape:cx="400"
     inkscape:cy="398.73618"
     inkscape:window-width="1600"
     inkscape:window-height="829"
     inkscape:window-x="-8"
     inkscape:window-y="-8"
     inkscape:window-maximized="1"
     inkscape:current-layer="svg3" />
  <rect
     width="40"
     height="40"
     rx="8"
     fill="#000000"
     fill-opacity="0.4"
     id="rect1"
     style="fill:#999999" />
  <path
     style="fill:#ff6465;stroke-width:0.0818256"
     d="M 19.88642,3.3499332 8.6969827,5.171087 C 7.1049558,5.4302418 5.8435305,6.6474879 5.5356315,8.2217228 L 3.3724563,19.285621 c -0.2406386,1.23075 0.1395644,2.5006 1.0181798,3.400278 L 19.712648,38.375083 c 1.483006,1.518562 3.923683,1.554551 5.451353,0.08038 L 38.516444,25.570579 c 1.52767,-1.474165 1.563876,-3.900293 0.08088,-5.418855 L 23.275384,4.4624567 C 22.396932,3.562779 21.131142,3.1474238 19.88642,3.3499332 Z m -8.374119,4.935118 c 0.78516,0.8039828 0.765993,2.0884208 -0.04281,2.8688998 -0.808806,0.780478 -2.1009489,0.761426 -2.8861071,-0.04255 C 7.798225,10.307414 7.8173942,9.0229758 8.6261929,8.2424967 9.4349986,7.4620176 10.727221,7.4810734 11.512297,8.285049 Z"
     id="path1" />
  <path
     style="fill:#515262;stroke-width:0.0673675"
     d="M 2.8566246,2.5064605 C 3.8400198,1.340618 5.1073227,0.70601714 6.4251884,0.71947387 7.7430532,0.73293314 8.9536238,1.3928296 9.8339834,2.5776325 10.336999,3.2545981 10.686874,4.0469123 10.887721,4.8895453 L 9.816595,5.1181155 C 9.6532415,4.5355757 9.3964041,3.9888624 9.0437582,3.5143464 8.3523528,2.5839171 7.4016152,2.0656861 6.3667062,2.0551162 5.3317969,2.0445483 4.3364996,2.5429877 3.5641869,3.4584653 1.9699388,5.3482477 1.8340486,8.4485574 3.2612834,10.369191 c 0.6914017,0.930502 1.6421402,1.448736 2.6770485,1.459304 0.044753,4.75e-4 0.089335,-0.0014 0.1339235,-0.0027 0.977713,-0.03158 1.9124784,-0.516465 2.6483364,-1.377759 0.00678,-0.0077 0.01368,-0.01506 0.020262,-0.02293 0.6714959,-0.7960379 1.083187,-1.8069161 1.2293302,-2.8537254 0.360698,-0.036346 0.722624,0.092284 1.011662,0.3821896 -0.201444,1.2051586 -0.682586,2.3616778 -1.4351323,3.3012758 -0.032766,0.0409 -0.064629,0.08243 -0.098488,0.122494 -0.9833866,1.165683 -2.2506989,1.800355 -3.568563,1.786899 -0.018783,-2.39e-4 -0.037361,-0.002 -0.05611,-0.0024 C 4.5276424,13.130418 3.3387066,12.473844 2.4709817,11.306045 0.65359747,8.8603402 0.82661731,4.912868 2.8566155,2.5064498 Z"
     id="path2" />
  <text
     xml:space="preserve"
     style="font-style:normal;font-variant:normal;font-weight:normal;font-stretch:normal;font-size:9.6px;line-height:0.6;font-family:Arial;-inkscape-font-specification:Arial;fill:#d40000;stroke-width:0.05"
     x="-9.7614927"
     y="27.842276"
     id="text1"
     transform="rotate(-42.775521)"><tspan
       sodipodi:role="line"
       id="tspan1"
       style="font-style:normal;font-variant:normal;font-weight:bold;font-stretch:normal;font-size:9.6px;line-height:0.6;font-family:Arial;-inkscape-font-specification:'Arial Bold';stroke-width:0.05"
       x="-9.7614927"
       y="27.842276">EDIT</tspan></text>
  <text
     xml:space="preserve"
     style="font-style:normal;font-variant:normal;font-weight:bold;font-stretch:normal;font-size:7.63572px;line-height:0.6;font-family:Arial;-inkscape-font-specification:'Arial Bold';fill:#800000;stroke-width:0.0440522"
     x="-10.395954"
     y="36.052307"
     id="text2"
     transform="matrix(0.73819413,-0.67567611,0.68833973,0.72461332,0,0)"><tspan
       sodipodi:role="line"
       id="tspan2"
       style="font-size:7.63572px;stroke-width:0.0440522"
       x="-10.395954"
       y="36.052307">PRICE</tspan></text>
</svg>
