<?xml version="1.0" encoding="UTF-8" standalone="no"?>
<!-- Uploaded to: SVG Repo, www.svgrepo.com, Generator: SVG Repo Mixer Tools -->

<svg
   version="1.1"
   id="Layer_1"
   viewBox="0 0 485 485"
   xml:space="preserve"
   sodipodi:docname="edit.svg"
   inkscape:version="1.3.2 (091e20e, 2023-11-25, custom)"
   xmlns:inkscape="http://www.inkscape.org/namespaces/inkscape"
   xmlns:sodipodi="http://sodipodi.sourceforge.net/DTD/sodipodi-0.dtd"
   xmlns="http://www.w3.org/2000/svg"
   xmlns:svg="http://www.w3.org/2000/svg"><defs
   id="defs9" /><sodipodi:namedview
   id="namedview9"
   pagecolor="#ffffff"
   bordercolor="#000000"
   borderopacity="0.25"
   inkscape:showpageshadow="2"
   inkscape:pageopacity="0.0"
   inkscape:pagecheckerboard="0"
   inkscape:deskcolor="#d1d1d1"
   inkscape:zoom="1.3051546"
   inkscape:cx="242.5"
   inkscape:cy="237.13665"
   inkscape:window-width="1600"
   inkscape:window-height="829"
   inkscape:window-x="-8"
   inkscape:window-y="-8"
   inkscape:window-maximized="1"
   inkscape:current-layer="Layer_1" />
<g
   id="g9">
	<g
   id="g2">
		<polygon
   style="fill:#AFB6BB;"
   points="337.5,7.5 422.5,97.5 337.5,97.5   "
   id="polygon1" />
		<polygon
   style="fill:#F2F2F2;"
   points="422.5,97.5 422.5,477.5 62.5,477.5 62.5,7.5 337.5,7.5 337.5,97.5   "
   id="polygon2" />
	</g>
	<g
   id="g8">
		<g
   id="g7">
			<path
   d="M340.732,0H55v485h375V94.518L340.732,0z M345,26.364L405.1,90H345V26.364z M70,470V15h260v90h85v365H70z"
   id="path2" />
			<rect
   x="102.5"
   y="191"
   width="280"
   height="15"
   id="rect2" />
			<rect
   x="102.5"
   y="141"
   width="120"
   height="15"
   id="rect3" />
			<rect
   x="102.5"
   y="241"
   width="280"
   height="15"
   id="rect4" />
			<rect
   x="102.5"
   y="291"
   width="280"
   height="15"
   id="rect5" />
			<rect
   x="102.5"
   y="341"
   width="280"
   height="15"
   id="rect6" />
			<rect
   x="102.5"
   y="391"
   width="280"
   height="15"
   id="rect7" />
		</g>
	</g>
</g>
<path
   fill="#ffce31"
   d="M 188.65197,341.52106 353.26246,180.71938 430.25686,255.9713 265.6412,416.77298 Z"
   id="path1"
   style="stroke-width:5.10175" /><path
   d="m 464.08319,157.28951 -9.80624,-9.58173 c -18.58022,-18.15487 -48.51503,-18.15487 -67.61137,0 l -33.54763,32.77962 77.4176,75.64527 33.54764,-32.77961 c 18.58023,-18.15487 18.58023,-47.90868 0,-66.06355"
   fill="#ed4c5c"
   id="path2-2"
   style="stroke-width:5.10175" /><path
   fill="#93a2aa"
   d="m 332.38035,201.2142 21.16081,-20.68645 77.00472,75.24183 -21.16082,20.68142 z"
   id="path3"
   style="stroke-width:5.10175" /><path
   fill="#c7d3d8"
   d="m 340.41113,209.0561 21.16081,-20.68142 60.58703,59.19495 -21.17113,20.67637 z"
   id="path4"
   style="stroke-width:5.10175" /><path
   fill="#fed0ac"
   d="m 188.47648,341.35968 -33.54763,85.73131 23.22528,22.69358 87.73997,-32.77962 z"
   id="path5"
   style="stroke-width:5.10175" /><path
   d="m 149.25156,442.22005 c -4.64505,12.10325 1.54836,17.65056 13.93516,13.11184 l 42.32164,-15.63335 -39.74104,-38.83124 -16.51576,41.35275"
   fill="#333333"
   id="path6"
   style="stroke-width:5.10175" /><path
   fill="#ffdf85"
   d="M 188.42487,341.73791 332.21519,201.23943 357.763,226.20236 213.97269,366.70084 Z"
   id="path7"
   style="stroke-width:5.10175" /><path
   fill="#ff8736"
   d="M 240.10887,392.00167 383.89919,251.50319 409.447,276.46612 265.65669,416.96461 Z"
   id="path8"
   style="stroke-width:5.10175" /></svg>
