<?xml version="1.0" encoding="UTF-8" standalone="no"?>
<!-- Uploaded to: SVG Repo, www.svgrepo.com, Generator: SVG Repo Mixer Tools -->

<svg
   width="800px"
   height="800px"
   viewBox="0 0 36 36"
   aria-hidden="true"
   role="img"
   class="iconify iconify--twemoji"
   preserveAspectRatio="xMidYMid meet"
   version="1.1"
   id="svg5"
   sodipodi:docname="graph.svg"
   inkscape:version="1.3.2 (091e20e, 2023-11-25, custom)"
   xmlns:inkscape="http://www.inkscape.org/namespaces/inkscape"
   xmlns:sodipodi="http://sodipodi.sourceforge.net/DTD/sodipodi-0.dtd"
   xmlns="http://www.w3.org/2000/svg"
   xmlns:svg="http://www.w3.org/2000/svg">
  <defs
     id="defs5" />
  <sodipodi:namedview
     id="namedview5"
     pagecolor="#ffffff"
     bordercolor="#000000"
     borderopacity="0.25"
     inkscape:showpageshadow="2"
     inkscape:pageopacity="0.0"
     inkscape:pagecheckerboard="0"
     inkscape:deskcolor="#d1d1d1"
     inkscape:zoom="0.79125"
     inkscape:cx="400"
     inkscape:cy="400"
     inkscape:window-width="1600"
     inkscape:window-height="829"
     inkscape:window-x="-8"
     inkscape:window-y="-8"
     inkscape:window-maximized="1"
     inkscape:current-layer="svg5" />
  <path
     fill="#CCD6DD"
     d="M31 2H5a3 3 0 0 0-3 3v26a3 3 0 0 0 3 3h26a3 3 0 0 0 3-3V5a3 3 0 0 0-3-3z"
     id="path1" />
  <path
     fill="#E1E8ED"
     d="M31 1H5a4 4 0 0 0-4 4v26a4 4 0 0 0 4 4h26a4 4 0 0 0 4-4V5a4 4 0 0 0-4-4zm0 2c1.103 0 2 .897 2 2v4h-6V3h4zm-4 16h6v6h-6v-6zm0-2v-6h6v6h-6zM25 3v6h-6V3h6zm-6 8h6v6h-6v-6zm0 8h6v6h-6v-6zM17 3v6h-6V3h6zm-6 8h6v6h-6v-6zm0 8h6v6h-6v-6zM3 5c0-1.103.897-2 2-2h4v6H3V5zm0 6h6v6H3v-6zm0 8h6v6H3v-6zm2 14c-1.103 0-2-.897-2-2v-4h6v6H5zm6 0v-6h6v6h-6zm8 0v-6h6v6h-6zm12 0h-4v-6h6v4c0 1.103-.897 2-2 2z"
     id="path2" />
  <path
     fill="#5C913B"
     d="M13 33H7V16a2 2 0 0 1 2-2h2a2 2 0 0 1 2 2v17z"
     id="path3" />
  <path
     fill="#3B94D9"
     d="M29 33h-6V9a2 2 0 0 1 2-2h2a2 2 0 0 1 2 2v24z"
     id="path4" />
  <path
     fill="#DD2E44"
     d="M21 33h-6V23a2 2 0 0 1 2-2h2a2 2 0 0 1 2 2v10z"
     id="path5" />
  <path
     style="fill:#ccd6dd;fill-opacity:1;stroke-width:0.0593511"
     d="M 3.737638,35.743356 C 2.3082162,35.500073 1.0088668,34.346547 0.5410924,32.905553 L 0.36966825,32.377476 V 18.00495 3.6324245 L 0.5410924,3.1043471 C 1.0222607,1.622093 2.3186037,0.49295156 3.8031369,0.26303908 4.0813079,0.21995827 8.6227842,0.2053619 18.237365,0.21664724 l 14.028356,0.0164662 0.472534,0.16838917 c 1.359476,0.48445429 2.304892,1.48059749 2.726791,2.87309979 0.103895,0.3429106 0.108413,0.9580151 0.108413,14.7601666 v 14.402344 l -0.166327,0.477097 c -0.444257,1.274305 -1.406756,2.246097 -2.668877,2.694643 l -0.472534,0.167934 -14.116957,0.0083 c -7.764326,0.0046 -14.2493327,-0.01422 -14.411126,-0.04175 z m 28.425366,-2.096179 c 0.609725,-0.246985 1.089753,-0.738848 1.297352,-1.329338 0.09347,-0.265865 0.104833,-0.547048 0.104833,-2.594211 v -2.296026 l -2.082102,-0.01568 -2.082104,-0.01568 v -1.013065 -1.013068 h 2.09687 2.09687 v -3.160762 -3.160764 h -2.09687 -2.09687 v -1.043648 -1.043648 h 2.09687 2.09687 v -3.160763 -3.160763 h -2.09687 -2.09687 V 9.6267092 8.6136433 l 2.082104,-0.015673 2.082102,-0.015672 -0.0017,-2.3258444 C 33.561931,4.2217341 33.549266,3.8988024 33.462464,3.6764972 33.223672,3.0649513 32.733443,2.5765847 32.147588,2.3666182 31.884264,2.272245 31.605771,2.2607727 29.578183,2.2607727 h -2.27407 l -0.01553,2.1022053 -0.01552,2.1022059 H 26.26968 25.2663 V 4.348069 2.2309542 h -3.130537 -3.13054 v 3.1905812 3.1905817 h 2.067337 2.067337 V 9.6259466 10.639776 H 21.07256 19.005223 v 3.160763 3.160763 h 2.067337 2.067337 v 1.043648 1.043648 H 21.07256 19.005223 v 1.043648 1.043649 H 17.971564 16.937895 V 20.092246 19.048598 H 14.870558 12.803223 V 18.00495 16.961302 h 2.067335 2.067337 v -3.160763 -3.160763 h -3.130538 -3.130539 v 1.580381 1.580382 H 9.672684 8.6685487 V 12.220157 10.639776 H 5.5084765 2.3484048 v 3.160763 3.160763 h 2.0968703 2.0968701 v 1.043648 1.043648 H 4.4452751 2.3484048 v 3.160764 3.160762 h 2.0968703 2.0968701 v 1.013068 1.013065 l -2.0821037,0.01568 -2.0821032,0.01568 -0.015536,2.114356 c -0.00916,1.246541 0.00903,2.248514 0.044311,2.441221 0.1600903,0.87437 0.8219561,1.563892 1.6624089,1.731876 0.1419103,0.02837 6.4644598,0.04763 14.0501078,0.04282 12.861336,-0.0082 13.809076,-0.01563 14.043774,-0.1107 z M 8.6390154,5.4215354 V 2.2607727 H 6.3649448 c -2.0275882,0 -2.3060812,0.011472 -2.5694042,0.1058455 -0.5861367,0.2100672 -1.0771975,0.6994429 -1.3143894,1.309879 -0.084616,0.2177667 -0.1017237,0.5770381 -0.1196116,2.5118575 -0.011481,1.2417599 -0.00659,2.2953362 0.010876,2.341282 0.026771,0.070436 0.5206335,0.081116 3.1491746,0.068099 l 3.117425,-0.015437 z m 8.2988796,0 V 2.2309542 h -3.130538 -3.130539 v 3.1905812 3.1905817 h 3.130539 3.130538 z"
     id="path6" />
  <path
     style="fill:#ccd6dd;fill-opacity:1;stroke-width:1.26382"
     d="m 289.41548,577.56714 v -21.48499 h 21.48499 21.485 v 21.48499 21.48499 h -21.485 -21.48499 z"
     id="path7"
     transform="scale(0.045)" />
  <path
     style="fill:#ccd6dd;fill-opacity:1;stroke-width:1.26382"
     d="m 467.61453,577.56714 v -21.48499 h 21.485 21.48499 v 21.48499 21.48499 h -21.48499 -21.485 z"
     id="path8"
     transform="scale(0.045)" />
</svg>
