<?xml version="1.0" encoding="UTF-8" standalone="no"?>
<!-- Uploaded to: SVG Repo, www.svgrepo.com, Generator: SVG Repo Mixer Tools -->

<svg
   height="800px"
   width="800px"
   version="1.1"
   id="Capa_1"
   viewBox="0 0 400 400"
   xml:space="preserve"
   sodipodi:docname="invoice.svg"
   inkscape:version="1.3.2 (091e20e, 2023-11-25, custom)"
   xmlns:inkscape="http://www.inkscape.org/namespaces/inkscape"
   xmlns:sodipodi="http://sodipodi.sourceforge.net/DTD/sodipodi-0.dtd"
   xmlns="http://www.w3.org/2000/svg"
   xmlns:svg="http://www.w3.org/2000/svg"><defs
   id="defs18" /><sodipodi:namedview
   id="namedview18"
   pagecolor="#ffffff"
   bordercolor="#000000"
   borderopacity="0.25"
   inkscape:showpageshadow="2"
   inkscape:pageopacity="0.0"
   inkscape:pagecheckerboard="0"
   inkscape:deskcolor="#d1d1d1"
   inkscape:zoom="0.79125"
   inkscape:cx="400"
   inkscape:cy="398.73618"
   inkscape:window-width="1600"
   inkscape:window-height="829"
   inkscape:window-x="-8"
   inkscape:window-y="-8"
   inkscape:window-maximized="1"
   inkscape:current-layer="Capa_1" />
<g
   id="g18"
   style="fill:#008080;fill-opacity:1"
   transform="matrix(0.99684044,0,0,0.99842022,0.63191158,1.263823)">
	<g
   id="g17"
   style="fill:#008080;fill-opacity:1">
		<path
   style="fill:#008080;fill-opacity:1"
   d="M 400,318.644 C 400,363.574 364.02,400 319.633,400 H 80.365 C 35.98,400 0,363.574 0,318.644 V 81.356 C 0,36.423 35.98,0 80.365,0 H 319.633 C 364.02,0 400,36.423 400,81.356 Z"
   id="path1" />
		
		
		
		
	</g>
</g>
<g
   id="g8"
   transform="matrix(6.0130332,0,0,5.9142969,10.124803,9.7511844)">
	<g
   id="g2">
		<polygon
   fill="#f9ebb2"
   points="56.586,14 46,3.414 46,14 "
   id="polygon1" />
		<path
   fill="#f9ebb2"
   d="m 45,16 c -0.553,0 -1,-0.447 -1,-1 V 2 H 8 C 6.896,2 6,2.896 6,4 v 56 c 0,1.104 0.896,2 2,2 h 48 c 1.104,0 2,-0.896 2,-2 V 16 Z"
   id="path1-1" />
	</g>
	
	
	
	
	
	
	<path
   fill="#394240"
   d="M 59.706,14.292 45.708,0.294 C 45.527,0.112 45.277,0 45,0 H 8 C 5.789,0 4,1.789 4,4 v 56 c 0,2.211 1.789,4 4,4 h 48 c 2.211,0 4,-1.789 4,-4 V 15 c 0,-0.277 -0.112,-0.527 -0.294,-0.708 z M 46,3.414 56.586,14 H 46 Z M 58,60 c 0,1.104 -0.896,2 -2,2 H 8 C 6.896,62 6,61.104 6,60 V 4 C 6,2.896 6.896,2 8,2 h 36 v 13 c 0,0.553 0.447,1 1,1 h 13 z"
   id="path8" />
	<polygon
   opacity="0.15"
   fill="#231f20"
   points="46,14 46,3.414 56.586,14 "
   id="polygon8" />
</g><path
   style="fill:#ff9811;stroke-width:0.5"
   d="m 77.947804,208.00252 c 0,-2.198 0.5375,-4.448 1.6115,-6.0395 1.074,-1.5925 2.549,-2.362 4.425,-2.362 2.098,0 3.672,0.63 4.722,1.863 1.0485,1.2355 1.574,2.896 1.574,4.969 0,1.4565 -0.519,3.1755 -1.555,5.1505 -1.0365,1.975 -2.8555,4.223 -5.0535,6.741 l -17.533,18.221 v 7.728 H 103.5088 v -8.793 H 83.243304 l -0.112,-0.431 7.296,-7.917 c 4.7405,-5.159 7.9915,-9.1005 9.757996,-11.7175 1.764,-2.617 2.6465,-5.655 2.6465,-9.061 0,-5.0605 -1.661,-9.06 -4.979996,-11.975 -3.3205,-2.9115 -7.9435,-4.3745 -13.8675,-4.3745 -5.579,0 -10.06,1.731 -13.442,5.199 -3.382,3.4675 -5.012,7.642 -4.888,12.629 l 0.0745,0.1695 h 12.219 z"
   id="path1-5" /><polygon
   style="fill:#00a1a7"
   points="25.458,127.26 1.278,127.26 1.278,147.044 76.018,147.044 76.018,127.26 51.837,127.26 51.837,38.038 1.278,45.592 1.278,63.511 25.458,63.511 "
   id="polygon1-4"
   transform="matrix(0.5,0,0,0.5,65.499804,89.417019)" /><path
   style="fill:#bf3c1a;stroke-width:0.5"
   d="m 95.203804,297.98702 c 2.542,-1.1605 4.5735,-2.771 6.091496,-4.8315 1.519,-2.061 2.2775,-4.315 2.2775,-6.7575 0,-4.913 -1.753,-8.7085 -5.257996,-11.387 -3.505,-2.6795 -8.183,-4.0175 -14.0345,-4.0175 -5.036,0 -9.3195,1.333 -12.8495,3.9995 -3.53,2.6665 -5.223,6.3395 -5.0745,10.6345 l 0.0745,0.4145 h 12.1465 c 0,-2.198 0.6155,-2.883 1.851,-3.8215 1.2345,-0.9385 2.6665,-1.5025 4.2955,-1.5025 2.074,0 3.6535,0.532 4.7405,1.6925 1.086,1.1605 1.629,2.5675 1.629,4.271 0,2.1475 -0.6045,3.928 -1.8135,5.1385 -1.21,1.21 -2.938,1.9155 -5.1845,1.9155 h -5.8665 v 8.793 h 5.866 c 2.494,0 4.425,0.7365 5.7955,1.9335 1.3705,1.198 2.0555,3.174 2.0555,5.79 0,1.8775 -0.655,3.4665 -1.962,4.701 -1.309,1.2345 -3.062,1.8675 -5.2595,1.8675 -1.9255,0 -3.56,-0.83 -4.9065,-2.0015 -1.3465,-1.1715 -2.018,-2.3985 -2.018,-4.5965 h -12.2205 l -0.0735,0.475 c -0.123,5.036 1.709,9.0085 5.499,11.6615 3.79,2.653 8.215,4.0435 13.275,4.0435 5.876,0 10.702,-1.3805 14.4795,-4.2075 3.777496,-2.826 5.664996,-6.6935 5.664996,-11.631 0,-3.0115 -0.8135,-5.589 -2.4435,-7.75 -1.63,-2.1615 -3.888496,-3.765 -6.776996,-4.827 z"
   id="path2" /><rect
   x="139.7773"
   y="270.651"
   style="fill:#ff5023;stroke-width:0.5"
   width="181.3535"
   height="36.2705"
   id="rect2" /><rect
   x="139.7773"
   y="199.20851"
   style="fill:#ffda44;stroke-width:0.5"
   width="181.3535"
   height="36.2705"
   id="rect3" /><rect
   x="139.7773"
   y="125.56902"
   style="fill:#00d7df;stroke-width:0.5"
   width="181.3535"
   height="36.2705"
   id="rect4" /><rect
   x="195.10631"
   y="270.651"
   style="fill:#bf3c1a;stroke-width:0.5"
   width="126.398"
   height="36.2705"
   id="rect5" /><rect
   x="195.10631"
   y="199.20851"
   style="fill:#ff9811;stroke-width:0.5"
   width="126.398"
   height="36.2705"
   id="rect6" /><rect
   x="195.10631"
   y="125.56902"
   style="fill:#00a1a7;stroke-width:0.5"
   width="126.398"
   height="36.2705"
   id="rect7" /></svg>
