<?xml version="1.0" encoding="UTF-8" standalone="no"?>
<!-- Uploaded to: SVG Repo, www.svgrepo.com, Generator: SVG Repo Mixer Tools -->

<svg
   width="800px"
   height="800px"
   viewBox="0 0 24 24"
   fill="none"
   version="1.1"
   id="svg2"
   sodipodi:docname="key.svg"
   inkscape:version="1.3.2 (091e20e, 2023-11-25, custom)"
   xmlns:inkscape="http://www.inkscape.org/namespaces/inkscape"
   xmlns:sodipodi="http://sodipodi.sourceforge.net/DTD/sodipodi-0.dtd"
   xmlns="http://www.w3.org/2000/svg"
   xmlns:svg="http://www.w3.org/2000/svg">
  <defs
     id="defs2" />
  <sodipodi:namedview
     id="namedview2"
     pagecolor="#ffffff"
     bordercolor="#000000"
     borderopacity="0.25"
     inkscape:showpageshadow="2"
     inkscape:pageopacity="0.0"
     inkscape:pagecheckerboard="0"
     inkscape:deskcolor="#d1d1d1"
     inkscape:zoom="0.79125"
     inkscape:cx="400"
     inkscape:cy="400"
     inkscape:window-width="1600"
     inkscape:window-height="829"
     inkscape:window-x="-8"
     inkscape:window-y="-8"
     inkscape:window-maximized="1"
     inkscape:current-layer="svg2" />
  <path
     opacity="0.5"
     d="m 0.15800948,11.993744 c 0,-5.5898355 0,-8.3847474 1.73654222,-10.1212777 C 3.631082,0.13592417 6.4259938,0.13592417 12.01583,0.13592417 c 5.589776,0 8.384782,0 10.121242,1.73654213 1.736577,1.7365303 1.736577,4.5314422 1.736577,10.1212777 0,5.589777 0,8.384783 -1.736577,10.121242 -1.73646,1.736578 -4.531466,1.736578 -10.121242,1.736578 -5.5898362,0 -8.384748,0 -10.1212783,-1.736578 C 0.15800948,20.378527 0.15800948,17.583521 0.15800948,11.993744 Z"
     fill="#1C274C"
     id="path1"
     style="fill:#1c274c;fill-opacity:1;stroke-width:1.18578" />
  <path
     fill-rule="evenodd"
     clip-rule="evenodd"
     d="m 19.200758,9.0990281 c 0,2.7707029 -2.115841,5.0168209 -4.726022,5.0168209 -0.476143,0 -1.560551,-0.116655 -2.08817,-0.583384 l -0.659495,0.700168 c -0.387644,0.411598 -0.282943,0.532765 -0.110559,0.73232 0.07204,0.0833 0.155804,0.180291 0.220496,0.317667 0,0 0.549558,0.816687 0,1.633372 -0.329685,0.466736 -1.252927,1.120005 -2.3080431,0 l -0.219749,0.233302 c 0,0 0.6593701,0.816686 0.1098126,1.633374 -0.3296605,0.466734 -1.2089029,0.933468 -1.9782466,0.116784 l -0.7693434,0.816686 c -0.527558,0.560002 -1.1723194,0.2333 -1.4287506,0 L 4.5832435,19.016101 c -0.6154699,-0.653403 -0.2564437,-1.361144 0,-1.633373 l 5.7151525,-6.066889 c 0,0 -0.549559,-0.93347 -0.549559,-2.2168109 0,-2.7707282 2.115841,-5.0168481 4.725899,-5.0168481 2.610181,0 4.726022,2.2461199 4.726022,5.0168481 z M 14.474736,10.84897 c 0.910403,0 1.648548,-0.78347 1.648548,-1.7500615 0,-0.9665383 -0.738145,-1.7500629 -1.648548,-1.7500629 -0.910528,0 -1.648673,0.7835246 -1.648673,1.7500629 0,0.9665915 0.738145,1.7500615 1.648673,1.7500615 z"
     fill="#1c274c"
     id="path2"
     style="stroke-width:1.28687" />
</svg>
