<?xml version="1.0" encoding="iso-8859-1"?>
<!-- Uploaded to: SVG Repo, www.svgrepo.com, Generator: SVG Repo Mixer Tools -->
<!DOCTYPE svg PUBLIC "-//W3C//DTD SVG 1.1//EN" "http://www.w3.org/Graphics/SVG/1.1/DTD/svg11.dtd">
<svg fill="#000000" version="1.1" id="Capa_1" xmlns="http://www.w3.org/2000/svg" xmlns:xlink="http://www.w3.org/1999/xlink" 
	 width="800px" height="800px" viewBox="0 0 111.075 111.075"
	 xml:space="preserve">
<g>
	<g>
		<path d="M53.523,44.646c0.661,0.085,1.33,0.144,2.015,0.144c0.685,0,1.353-0.059,2.013-0.143l0.883-1.22l-2.896-7.922
			l-2.896,7.922L53.523,44.646z"/>
		<polygon points="54.64,33.582 55.536,35.505 56.434,33.582 		"/>
		<path d="M43.024,37.789c0.33-0.311,0.726-0.563,1.148-0.788c0.719-0.386,1.432-0.78,2.165-1.132
			c0.712-0.338,1.448-0.631,2.177-0.938c0.686-0.287,1.379-0.561,2.059-0.855c0.117-0.053,0.236-0.176,0.283-0.295
			c0.152-0.381,0.281-0.772,0.4-1.166c0.092-0.299,0.15-0.594,0.533-0.672c0.096-0.021,0.212-0.188,0.229-0.299
			c0.078-0.573,0.137-1.149,0.177-1.723c0.01-0.125-0.054-0.281-0.136-0.375c-0.506-0.565-0.785-1.216-0.899-1.964
			c-0.06-0.375-0.269-0.723-0.375-1.091c-0.146-0.494-0.265-0.997-0.377-1.499c-0.04-0.182-0.017-0.377-0.049-0.563
			c-0.044-0.271-0.034-0.479,0.29-0.584c0.092-0.029,0.164-0.244,0.168-0.375c0.018-0.802,0.006-0.606,0.011-1.41
			c0.004-0.493,0-0.988,0.034-1.481c0.07-0.94,0.623-1.604,1.314-2.175c1.012-0.836,2.223-1.226,3.471-1.52
			c0.652-0.154,1.32-0.248,1.986-0.355c0.176-0.026,0.359-0.003,0.541-0.003c0.03,0.046,0.061,0.091,0.092,0.138
			c-0.141,0.101-0.293,0.187-0.414,0.306c-0.271,0.27-0.246,0.459,0.043,0.705c0.603,0.508,1.203,1.017,1.789,1.542
			c0.515,0.463,0.713,1.066,0.713,1.747c0.002,1.17,0.002,1.34,0.002,2.51c-0.002,0.238-0.018,0.477,0.279,0.581
			c0.063,0.022,0.129,0.155,0.123,0.229c-0.051,0.6-0.115,1.195-0.178,1.795c-0.003,0.023-0.006,0.049-0.02,0.066
			c-0.539,0.785-0.605,1.75-0.991,2.593c-0.015,0.031-0.024,0.068-0.046,0.094c-0.715,0.841-0.491,1.852-0.508,2.814
			c0,0.098,0.069,0.251,0.148,0.286c0.291,0.128,0.361,0.377,0.439,0.644c0.131,0.414,0.254,0.834,0.434,1.229
			c0.066,0.144,0.264,0.269,0.428,0.33c2.191,0.842,4.36,1.733,6.456,2.808c0.419,0.215,0.779,0.479,1.087,0.793l0.149,0.648
			c1.938-2.619,3.101-5.85,3.101-9.358c0-8.706-7.059-15.764-15.765-15.764S39.772,20.32,39.772,29.025
			c0,3.514,1.164,6.748,3.107,9.369L43.024,37.789z"/>
		<path d="M23.674,89.215c-1.989-1.02-4.048-1.865-6.129-2.664c-0.155-0.059-0.341-0.178-0.405-0.312
			c-0.169-0.377-0.287-0.775-0.41-1.168c-0.075-0.253-0.142-0.488-0.418-0.611c-0.075-0.032-0.142-0.178-0.142-0.271
			c0.016-0.914-0.197-1.873,0.481-2.671c0.021-0.023,0.029-0.061,0.044-0.089c0.366-0.8,0.429-1.716,0.94-2.461
			c0.013-0.017,0.016-0.041,0.019-0.063c0.06-0.57,0.12-1.136,0.169-1.703c0.006-0.07-0.057-0.195-0.117-0.218
			c-0.281-0.099-0.267-0.325-0.265-0.552c0-1.109,0-1.271-0.002-2.383c0-0.645-0.189-1.219-0.677-1.657
			c-0.557-0.499-1.127-0.981-1.698-1.464c-0.274-0.232-0.299-0.413-0.04-0.67c0.114-0.112,0.259-0.194,0.393-0.289
			c-0.029-0.045-0.059-0.088-0.087-0.131c-0.173,0-0.347-0.022-0.514,0.002c-0.632,0.103-1.267,0.191-1.886,0.338
			c-1.185,0.279-2.334,0.648-3.294,1.441c-0.656,0.541-1.181,1.172-1.247,2.064c-0.033,0.468-0.029,0.938-0.033,1.404
			c-0.004,0.765,0.007,0.578-0.01,1.34c-0.004,0.124-0.072,0.328-0.159,0.355c-0.308,0.1-0.317,0.297-0.275,0.555
			c0.03,0.177,0.008,0.361,0.046,0.533c0.106,0.478,0.22,0.955,0.358,1.424c0.101,0.35,0.299,0.68,0.355,1.035
			c0.108,0.709,0.374,1.326,0.854,1.863c0.078,0.09,0.139,0.237,0.129,0.355c-0.038,0.545-0.094,1.092-0.168,1.635
			c-0.016,0.105-0.126,0.264-0.217,0.284c-0.363,0.073-0.419,0.354-0.506,0.638c-0.113,0.373-0.235,0.745-0.38,1.105
			c-0.045,0.113-0.158,0.229-0.269,0.281c-0.646,0.278-1.304,0.539-1.954,0.812c-0.691,0.291-1.391,0.569-2.066,0.89
			c-0.695,0.334-1.372,0.708-2.055,1.074c-0.401,0.215-0.776,0.453-1.09,0.748L0,94.059c4.623,0,7.037,3.343,11.848,3.755
			l-1.772-2.446l2.749-7.519l-0.851-1.826h1.703l-0.853,1.826l2.749,7.519l-1.727,2.387c3.503-0.586,9.094-3.694,11.806-3.694
			l-0.949-4.093C24.413,89.668,24.07,89.418,23.674,89.215z"/>
		<path d="M66.385,89.215c-1.988-1.02-4.048-1.865-6.129-2.664c-0.154-0.059-0.341-0.178-0.404-0.312
			c-0.17-0.377-0.287-0.775-0.41-1.168c-0.075-0.253-0.144-0.488-0.418-0.611c-0.075-0.032-0.144-0.178-0.144-0.271
			c0.017-0.914-0.196-1.873,0.482-2.671c0.021-0.023,0.028-0.061,0.044-0.089c0.365-0.8,0.429-1.716,0.939-2.461
			c0.014-0.017,0.017-0.041,0.02-0.063c0.061-0.57,0.119-1.136,0.169-1.703c0.005-0.07-0.058-0.195-0.117-0.218
			c-0.28-0.099-0.267-0.325-0.265-0.552c0-1.109,0-1.271-0.002-2.383c0-0.645-0.189-1.219-0.678-1.657
			c-0.557-0.499-1.127-0.981-1.697-1.464c-0.274-0.232-0.301-0.413-0.041-0.67c0.115-0.112,0.26-0.194,0.394-0.289
			c-0.03-0.045-0.059-0.088-0.087-0.131c-0.173,0-0.347-0.022-0.514,0.002c-0.633,0.103-1.268,0.191-1.886,0.338
			c-1.185,0.279-2.334,0.648-3.294,1.441c-0.656,0.541-1.181,1.172-1.247,2.064c-0.033,0.468-0.029,0.938-0.033,1.404
			c-0.004,0.765,0.007,0.578-0.01,1.34c-0.004,0.124-0.072,0.328-0.159,0.355c-0.308,0.1-0.317,0.297-0.275,0.555
			c0.03,0.177,0.008,0.361,0.046,0.533c0.106,0.478,0.22,0.955,0.357,1.424c0.102,0.35,0.3,0.68,0.356,1.035
			c0.108,0.709,0.374,1.326,0.854,1.863c0.078,0.09,0.138,0.237,0.129,0.355c-0.038,0.545-0.094,1.092-0.168,1.635
			c-0.016,0.105-0.126,0.264-0.217,0.284c-0.363,0.073-0.419,0.354-0.506,0.638c-0.113,0.373-0.235,0.745-0.38,1.105
			c-0.045,0.113-0.158,0.229-0.27,0.281c-0.645,0.278-1.303,0.539-1.953,0.812c-0.691,0.291-1.391,0.569-2.066,0.89
			c-0.696,0.334-1.373,0.708-2.055,1.074c-0.401,0.215-0.776,0.453-1.09,0.748l-0.949,4.043c4.623,0,7.037,3.343,11.848,3.755
			l-1.772-2.446l2.749-7.519l-0.851-1.826h1.704l-0.854,1.826l2.749,7.519l-1.728,2.387c3.504-0.586,9.094-3.694,11.807-3.694
			l-0.949-4.093C67.124,89.668,66.781,89.418,66.385,89.215z"/>
		<path d="M111.075,94.06l-0.949-4.093c-0.291-0.299-0.634-0.549-1.03-0.754c-1.988-1.02-4.048-1.864-6.129-2.664
			c-0.154-0.059-0.341-0.178-0.404-0.312c-0.17-0.375-0.287-0.773-0.41-1.166c-0.075-0.254-0.143-0.49-0.418-0.611
			c-0.075-0.033-0.143-0.178-0.143-0.271c0.016-0.914-0.197-1.873,0.481-2.671c0.021-0.024,0.028-0.06,0.043-0.089
			c0.366-0.801,0.43-1.717,0.94-2.461c0.014-0.018,0.017-0.041,0.02-0.062c0.061-0.57,0.12-1.137,0.169-1.705
			c0.005-0.068-0.058-0.195-0.117-0.217c-0.28-0.1-0.267-0.326-0.265-0.552c0-1.11,0-1.271-0.002-2.382
			c0-0.646-0.189-1.219-0.678-1.658c-0.557-0.499-1.127-0.982-1.697-1.464c-0.274-0.233-0.301-0.413-0.041-0.669
			c0.115-0.113,0.26-0.195,0.394-0.29c-0.03-0.044-0.059-0.087-0.088-0.132c-0.172,0-0.346-0.021-0.513,0.004
			c-0.633,0.102-1.268,0.191-1.887,0.337c-1.185,0.278-2.334,0.649-3.293,1.442c-0.656,0.541-1.182,1.172-1.248,2.063
			c-0.032,0.468-0.028,0.938-0.032,1.405c-0.005,0.764,0.007,0.578-0.011,1.339c-0.004,0.124-0.071,0.327-0.16,0.354
			c-0.307,0.102-0.315,0.299-0.273,0.555c0.03,0.178,0.008,0.361,0.046,0.535c0.106,0.477,0.22,0.953,0.357,1.422
			c0.102,0.351,0.3,0.681,0.356,1.035c0.107,0.711,0.373,1.328,0.854,1.864c0.078,0.089,0.138,0.237,0.129,0.354
			c-0.038,0.546-0.094,1.093-0.168,1.636c-0.016,0.104-0.126,0.265-0.217,0.284c-0.363,0.074-0.42,0.354-0.506,0.638
			c-0.113,0.373-0.235,0.745-0.381,1.106c-0.045,0.113-0.158,0.229-0.27,0.279c-0.645,0.279-1.303,0.539-1.953,0.812
			c-0.691,0.291-1.391,0.568-2.066,0.89c-0.695,0.334-1.373,0.708-2.055,1.074c-0.4,0.215-0.777,0.453-1.09,0.748l-0.949,4.043
			c4.623,0,7.037,3.343,11.848,3.755l-1.771-2.445l2.749-7.52l-0.851-1.826H99.1l-0.854,1.826l2.749,7.52l-1.728,2.387
			C102.771,97.17,108.363,94.06,111.075,94.06z"/>
		<polygon points="13.327,55.322 97.749,55.322 97.749,64.072 98.749,64.072 98.749,54.322 56.934,54.322 56.934,49.79 
			55.934,49.79 55.934,54.322 12.327,54.322 12.327,64.072 13.327,64.072 		"/>
	</g>
</g>
</svg>