<?xml version="1.0" encoding="UTF-8" standalone="no"?>
<!-- Uploaded to: SVG Repo, www.svgrepo.com, Generator: SVG Repo Mixer Tools -->

<svg
   width="800px"
   height="800px"
   viewBox="0 0 24 24"
   fill="none"
   version="1.1"
   id="svg1"
   sodipodi:docname="bkgrd - Copy.svg"
   inkscape:version="1.3.2 (091e20e, 2023-11-25, custom)"
   xmlns:inkscape="http://www.inkscape.org/namespaces/inkscape"
   xmlns:sodipodi="http://sodipodi.sourceforge.net/DTD/sodipodi-0.dtd"
   xmlns="http://www.w3.org/2000/svg"
   xmlns:svg="http://www.w3.org/2000/svg">
  <defs
     id="defs1" />
  <sodipodi:namedview
     id="namedview1"
     pagecolor="#ffffff"
     bordercolor="#000000"
     borderopacity="0.25"
     inkscape:showpageshadow="2"
     inkscape:pageopacity="0.0"
     inkscape:pagecheckerboard="0"
     inkscape:deskcolor="#d1d1d1"
     inkscape:zoom="0.79125"
     inkscape:cx="400"
     inkscape:cy="509.95261"
     inkscape:window-width="1600"
     inkscape:window-height="829"
     inkscape:window-x="-8"
     inkscape:window-y="-8"
     inkscape:window-maximized="1"
     inkscape:current-layer="svg1" />
  <rect
     x="0.17222749"
     y="0.13431279"
     width="23.611374"
     height="23.725117"
     rx="2.6234858"
     fill="#2A4157"
     fill-opacity="0.24"
     id="rect1"
     style="fill:#2a3f54;fill-opacity:0.239216;stroke-width:1.3149" />
  <path
     style="fill:#008000;fill-opacity:0.239216;stroke-width:1.26382"
     d="M 78.988942,793.59028 C 52.060814,789.00492 27.911477,771.08749 15.921118,746.79756 5.542717,725.77312 6.3179425,753.78343 6.3286625,400.20478 6.3351483,186.27881 6.7638797,82.684388 7.6657439,77.125642 13.28779,42.473498 42.642141,12.814758 77.641275,6.4245016 82.895022,5.4652555 179.07218,5.0552923 398.85711,5.0552923 c 352.40384,0 324.37595,-0.7827256 345.50721,9.6488657 9.77758,4.826772 13.84757,7.793038 22.14802,16.141769 11.234,11.299341 17.37949,21.600216 22.31311,37.400518 l 2.9597,9.478673 V 400.63191 723.5387 l -3.44317,10.11059 c -4.83562,14.19935 -11.54787,25.06286 -21.85267,35.36767 -10.3048,10.3048 -21.16831,17.01705 -35.36767,21.85266 l -10.11058,3.44318 -317.8515,0.17675 C 228.34123,794.58677 82.464455,794.1821 78.988942,793.59028 Z"
     id="path3"
     transform="scale(0.03)" />
  <path
     style="fill:#008000;fill-opacity:0.239216;stroke-width:1.26382"
     d="M 73.585893,791.76126 C 49.562812,786.53276 27.548099,768.48519 15.235268,743.92567 10.585556,734.65122 9.9534463,732.23225 8.7519838,719.11532 7.1224268,701.32469 6.2913672,353.35829 7.482734,187.67773 8.3015354,73.808944 8.3368564,72.597532 11.04882,65.37087 16.307639,51.357512 21.94001,42.55203 32.236974,32.245942 43.182701,21.290516 52.068085,15.421143 65.413522,10.330675 L 73.933649,7.0807673 238.86256,6.0042472 c 184.06109,-1.2013993 455.3991,-0.3074759 477.72512,1.5738659 13.71049,1.1553394 15.21193,1.566104 26.49988,7.2498489 9.51835,4.792718 14.04223,8.095118 22.1169,16.145189 11.86714,11.830988 17.21163,20.353179 22.27459,35.518461 l 3.67419,11.005445 v 323.300393 323.3004 l -3.70803,10.16025 c -9.45803,25.91559 -26.84391,43.91837 -52.84555,54.72068 l -9.79713,4.07019 -321.64297,0.21919 c -267.75136,0.18246 -322.971769,-0.07 -329.573667,-1.5069 z"
     id="path4"
     transform="scale(0.03)" />
  <rect
     x="3.4502118"
     y="15.019516"
     style="fill:#e6e9ee;stroke-width:0.0433011"
     width="17.981327"
     height="7.6797347"
     id="rect1-0" />
  <g
     id="g3"
     transform="matrix(0.04781227,0,0,0.04193277,-2.8810667,3.8216213)">
	<path
   style="fill:#2c9984"
   d="m 138.614,274.107 v 168.4 h 357.6 v -168.4 z m 12,131.6 v -94.8 c 13.6,0 24.4,-10.8 24.4,-24.4 h 103.2 c -21.6,14.8 -36.4,41.6 -36.4,72 0,30.4 14.4,57.2 36.4,72 h -103.2 c 0,-14 -10.8,-24.8 -24.4,-24.8 z m 333.2,0 c -13.6,0 -24.4,10.8 -24.4,24.4 h -102.8 c 21.6,-14.8 36.4,-41.6 36.4,-72 0,-30.4 -14.4,-57.2 -36.4,-72 h 102.8 c 0,13.6 10.8,24.4 24.4,24.4 z"
   id="path1" />

	<circle
   style="fill:#2c9984"
   cx="439.814"
   cy="358.10699"
   r="26"
   id="circle2" />

	<circle
   style="fill:#2c9984"
   cx="194.614"
   cy="358.10699"
   r="26"
   id="circle3" />

</g>
  <path
     style="fill:#e6e9ee;stroke-width:0.0567887"
     d="m 12.572386,18.27803 c -0.448484,0 -0.817824,-0.273825 -0.817824,-0.606327 0,-0.332502 0.36934,-0.606327 0.817824,-0.606327 0.237433,0 0.448485,0.07823 0.606773,0.195589 0.211052,0.156472 0.55401,0.176031 0.791443,0.01956 0.211052,-0.156472 0.237433,-0.410738 0.02638,-0.586768 -0.237433,-0.176031 -0.527629,-0.312943 -0.844206,-0.391179 v -0.293384 c 0,-0.234708 -0.237433,-0.410738 -0.55401,-0.410738 -0.316577,0 -0.55401,0.17603 -0.55401,0.410738 v 0.293384 c -0.791443,0.17603 -1.371835,0.723681 -1.371835,1.369126 0,0.782357 0.870587,1.427803 1.925845,1.427803 0.448484,0 0.817824,0.273825 0.817824,0.606327 0,0.332502 -0.36934,0.606327 -0.817824,0.606327 -0.237433,0 -0.448485,-0.07824 -0.606773,-0.195589 -0.211052,-0.156472 -0.55401,-0.176031 -0.791443,-0.01956 -0.211052,0.156471 -0.237433,0.410737 -0.02638,0.586768 0.237433,0.17603 0.527629,0.312943 0.844206,0.391179 v 0.293384 c 0,0.234707 0.237433,0.410738 0.55401,0.410738 0.316578,0 0.55401,-0.176031 0.55401,-0.410738 v -0.293384 c 0.791443,-0.176031 1.371835,-0.723681 1.371835,-1.369126 0,-0.782358 -0.870587,-1.427803 -1.925845,-1.427803 z"
     id="path3-7" />
  <rect
     x="-15.705515"
     y="-6.9916234"
     transform="matrix(-0.6800694,-0.73314775,0.73403339,-0.67911338,0,0)"
     style="fill:#ffffff;stroke-width:0.0391018"
     width="7.5385194"
     height="14.937809"
     id="rect3" />
  <g
     id="g5"
     transform="matrix(0.04016291,0,0,0.04016291,0.16927966,-1.8257672)">
	<path
   style="fill:#4cdbc4"
   d="m 17.414,313.707 114.4,123.6 262.4,-242.8 -114.4,-123.6 z m 98.4,88.4 -64.4,-69.6 c 10,-9.2 10.4,-24.8 1.2,-34.4 l 75.6,-70 c -6,25.6 1.6,55.2 22.4,77.6 20.8,22.4 49.6,32 75.6,28 l -76,69.6 c -8.8,-9.6 -24.4,-10.4 -34.4,-1.2 z m 244.4,-226.4 c -10,9.2 -10.4,24.8 -1.2,34.4 l -75.6,70 c 6,-25.6 -1.6,-55.2 -22.4,-77.6 -20.8,-22.4 -49.6,-32 -75.6,-28 l 75.6,-70 c 9.2,10 24.8,10.4 34.4,1.2 z"
   id="path4-3" />

	<circle
   style="fill:#4cdbc4"
   cx="295.814"
   cy="170.907"
   r="26"
   id="circle4" />

	<circle
   style="fill:#4cdbc4"
   cx="115.814"
   cy="337.30701"
   r="26"
   id="circle5" />

</g>
  <path
     style="fill:#ffffff;stroke-width:0.0493851"
     d="M 8.2997961,8.0726586 C 8.0330813,8.3008972 7.6227508,8.2818773 7.397069,8.0346188 7.1508707,7.7873602 7.1713872,7.4069624 7.4381021,7.1977437 7.5612012,7.0836243 7.7458499,7.0265647 7.9099821,7.0455846 8.1561804,7.0646045 8.3613457,6.8934255 8.3613457,6.6842067 8.3818622,6.455968 8.1972135,6.2657691 7.9715317,6.2657691 7.7048169,6.2467492 7.4381021,6.3038089 7.2124203,6.3989084 L 7.007255,6.1896896 C 6.8431228,6.0375305 6.576408,6.0185106 6.3917593,6.1706697 6.2276271,6.3228288 6.2071106,6.5700874 6.3712428,6.7412663 L 6.576408,6.9504851 c -0.3282644,0.513537 -0.2667148,1.198253 0.1846487,1.6547303 0.5539462,0.5705967 1.5182229,0.5896167 2.1132021,0.07608 0.2667148,-0.2282387 0.6770451,-0.2092188 0.9027271,0.03804 0.2461981,0.2472585 0.2256821,0.6276561 -0.04103,0.8368751 -0.123099,0.114119 -0.307748,0.171179 -0.4718801,0.152159 -0.2461983,-0.01902 -0.4513636,0.152159 -0.4513636,0.3613779 -0.020516,0.228238 0.1641322,0.418437 0.389814,0.418437 0.2667147,0.01902 0.5334297,-0.03804 0.7591117,-0.133139 l 0.2051651,0.209219 c 0.164132,0.152159 0.430847,0.171179 0.615496,0.01902 0.164132,-0.152159 0.184648,-0.399418 0.02052,-0.570597 L 10.597647,9.8034681 C 10.925911,9.2899311 10.864362,8.6052154 10.412998,8.1487381 9.8590519,7.5781414 8.8947753,7.5401017 8.2997961,8.0726586 Z"
     id="path5" />
</svg>
