<?xml version="1.0" encoding="iso-8859-1"?>
<!-- Uploaded to: SVG Repo, www.svgrepo.com, Generator: SVG Repo Mixer Tools -->
<svg version="1.1" id="Layer_1" xmlns="http://www.w3.org/2000/svg" xmlns:xlink="http://www.w3.org/1999/xlink" 
	 viewBox="0 0 451.296 451.296" xml:space="preserve">
<circle style="fill:#334D5C;" cx="225.648" cy="225.638" r="225.638"/>
<path style="opacity:0.1;enable-background:new    ;" d="M451.115,233.166L335.001,117.051c-0.272-0.274-0.545-0.546-0.818-0.818
	l-0.02-0.019h0c-12.036-11.973-25.388-22.334-28.359-19.363l-36.34,36.34L110.939,291.762l-9.214,36.246l-5.218,20.497
	c-0.478,1.911,0.179,3.729,1.428,4.94l-0.003,0.003l95.523,95.523c10.519,1.503,21.259,2.324,32.194,2.324
	C347.751,451.296,447.137,354.3,451.115,233.166z"/>
<rect x="186.823" y="108.495" transform="matrix(-0.7071 -0.7071 0.7071 -0.7071 182.506 516.7916)" style="fill:#FCD462;" width="22.922" height="224.206"/>
<rect x="203.047" y="124.678" transform="matrix(-0.7071 -0.7071 0.7071 -0.7071 198.7596 555.8903)" style="fill:#F6C358;" width="22.922" height="224.206"/>
<rect x="219.26" y="140.892" transform="matrix(-0.7071 -0.7071 0.7071 -0.7071 214.9716 595.034)" style="fill:#DC8744;" width="22.922" height="224.206"/>
<rect x="264.701" y="144.71" transform="matrix(-0.7071 -0.7071 0.7071 -0.7071 402.9254 471.3607)" style="fill:#FFFFFF;" width="68.767" height="15.043"/>
<path style="fill:#E56353;" d="M328.719,171.193l-48.625-48.625l25.696-25.696c6.029-6.028,54.654,42.597,48.625,48.625
	L328.719,171.193z"/>
<path style="fill:#FCD462;" d="M123.273,349.563l36.271-9.195l-48.625-48.625l-9.195,36.271c4.969,1.412,9.658,4.067,13.57,7.979
	C119.205,339.904,121.861,344.594,123.273,349.563z"/>
<path style="fill:#64798A;" d="M102.774,354.759l20.499-5.196c-1.412-4.969-4.067-9.658-7.979-13.57
	c-3.911-3.912-8.601-6.568-13.57-7.979l-5.196,20.499C95.57,352.289,98.998,355.716,102.774,354.759z"/>
</svg>