<?xml version="1.0" encoding="utf-8"?>
<!-- Uploaded to: SVG Repo, www.svgrepo.com, Generator: SVG Repo Mixer Tools -->
<svg version="1.1" id="Uploaded to svgrepo.com" xmlns="http://www.w3.org/2000/svg" xmlns:xlink="http://www.w3.org/1999/xlink" 
	 width="800px" height="800px" viewBox="0 0 32 32" xml:space="preserve">
<style type="text/css">
	.cubies_twee{fill:#67625D;}
	.cubies_een{fill:#4C4842;}
	.cubies_twaalf{fill:#FFF2DF;}
	.cubies_vijftien{fill:#D1DE8B;}
	.cubies_vier{fill:#A5A29C;}
	.cubies_drie{fill:#837F79;}
	.st0{fill:#F2C99E;}
	.st1{fill:#F9E0BD;}
	.st2{fill:#65C3AB;}
	.st3{fill:#725A48;}
	.st4{fill:#8E7866;}
	.st5{fill:#D97360;}
	.st6{fill:#98D3BC;}
	.st7{fill:#C9483A;}
	.st8{fill:#CCE2CD;}
	.st9{fill:#EDB57E;}
	.st10{fill:#EC9B5A;}
	.st11{fill:#C9C6C0;}
	.st12{fill:#EDEAE5;}
	.st13{fill:#A4C83F;}
	.st14{fill:#BCD269;}
	.st15{fill:#E69D8A;}
	.st16{fill:#E3D4C0;}
	.st17{fill:#C6B5A2;}
	.st18{fill:#2EB39A;}
	.st19{fill:#AB9784;}
</style>
<g>
	<path class="cubies_drie" d="M32,20H0V3c0-1.657,1.343-3,3-3h26c1.657,0,3,1.343,3,3V20z"/>
	<path class="cubies_vier" d="M30,20H0V3c0-1.657,1.343-3,3-3h24c1.657,0,3,1.343,3,3V20z"/>
	<path class="cubies_een" d="M29,32H3c-1.657,0-3-1.343-3-3v-9h32v9C32,30.657,30.657,32,29,32z"/>
	<path class="cubies_twee" d="M0,20h30v9c0,1.657-1.343,3-3,3H3c-1.657,0-3-1.343-3-3L0,20z"/>
	<circle class="cubies_vijftien" cx="27" cy="3" r="1"/>
	<path class="cubies_twee" d="M23,3c0-0.552,0.448-1,1-1s1,0.448,1,1c0,0.552-0.448,1-1,1S23,3.552,23,3z M27,16H3
		c-0.552,0-1,0.448-1,1c0,0.552,0.448,1,1,1h24c0.552,0,1-0.448,1-1C28,16.448,27.552,16,27,16z"/>
	<path class="cubies_twaalf" d="M26,29H4c-0.552,0-1-0.448-1-1V16h24v12C27,28.552,26.552,29,26,29z"/>
	<path class="cubies_drie" d="M21,21H9c-0.552,0-1-0.447-1-1s0.448-1,1-1h12c0.552,0,1,0.447,1,1S21.552,21,21,21z M22,24
		c0-0.553-0.448-1-1-1H9c-0.552,0-1,0.447-1,1s0.448,1,1,1h12C21.552,25,22,24.553,22,24z M9,17h12c0.552,0,1-0.447,1-1H8
		C8,16.553,8.448,17,9,17z"/>
</g>
</svg>