<?xml version="1.0" encoding="iso-8859-1"?>
<!-- Uploaded to: SVG Repo, www.svgrepo.com, Generator: SVG Repo Mixer Tools -->
<svg version="1.1" id="Layer_1" xmlns="http://www.w3.org/2000/svg" xmlns:xlink="http://www.w3.org/1999/xlink" 
	 viewBox="0 0 512.006 512.006" xml:space="preserve">
<path style="fill:#6790BF;" d="M0.003,200.348c0,110.472,89.876,200.348,200.348,200.348l22.261-200.348L200.35,0
	C89.879,0,0.003,89.876,0.003,200.348z"/>
<rect x="271.253" y="365.062" transform="matrix(0.7071 0.7071 -0.7071 0.7071 398.4518 -165.0426)" style="fill:#324860;" width="254.395" height="66.782"/>
<path style="fill:#446080;" d="M200.35,0v400.696c110.472,0,200.348-89.876,200.348-200.348S310.822,0,200.35,0z"/>
<path style="fill:#FFFFFF;" d="M44.524,200.348c0,85.922,69.904,155.826,155.826,155.826l22.261-155.826L200.35,44.522
	C114.428,44.522,44.524,114.425,44.524,200.348z"/>
<path style="fill:#BFDCFF;" d="M200.35,44.522v311.652c85.922,0,155.826-69.904,155.826-155.826S286.273,44.522,200.35,44.522z"/>
</svg>