<?xml version="1.0" encoding="iso-8859-1"?>
<!-- Uploaded to: SVG Repo, www.svgrepo.com, Generator: SVG Repo Mixer Tools -->
<svg height="800px" width="800px" version="1.1" id="Layer_1" xmlns="http://www.w3.org/2000/svg" xmlns:xlink="http://www.w3.org/1999/xlink" 
	 viewBox="0 0 512.001 512.001" xml:space="preserve">
<path style="fill:#FFB547;" d="M234.628,471.237l-37.366,34.415c-8.148,7.505-21.356,3.627-24.152-7.092l-12.827-49.153
	c-4.147-15.888-19.787-25.939-35.961-23.11l-50.04,8.752c-10.912,1.908-19.927-8.495-16.485-19.024l15.783-48.286
	c5.102-15.608-2.621-32.518-17.758-38.884L8.993,309.164c-10.212-4.295-12.17-17.918-3.583-24.916l39.383-32.087
	c12.73-10.372,15.376-28.774,6.084-42.312l-28.746-41.884c-6.269-9.133-0.55-21.654,10.457-22.897l50.479-5.701
	c16.317-1.843,28.492-15.893,27.993-32.306l-1.54-50.776c-0.336-11.073,11.244-18.514,21.177-13.609l45.548,22.494
	c14.722,7.271,32.562,2.033,41.015-12.043l26.155-43.549c5.704-9.497,19.469-9.497,25.172,0l26.155,43.549
	c8.455,14.076,26.293,19.314,41.015,12.043l45.548-22.494c9.933-4.905,21.512,2.537,21.177,13.609l-1.54,50.776
	c-0.498,16.413,11.676,30.463,27.993,32.306l50.479,5.701c11.008,1.243,16.726,13.764,10.457,22.897l-28.747,41.883
	c-9.292,13.538-6.647,31.94,6.083,42.312l39.383,32.087c8.588,6.997,6.629,20.622-3.582,24.916l-46.828,19.692
	c-15.136,6.365-22.859,23.276-17.758,38.884l15.783,48.286c3.442,10.53-5.572,20.932-16.484,19.024l-50.041-8.752
	c-16.175-2.829-31.814,7.223-35.961,23.111l-12.827,49.153c-2.797,10.719-16.005,14.597-24.152,7.091l-37.366-34.415
	C265.297,460.114,246.706,460.114,234.628,471.237z"/>
<path style="opacity:0.1;enable-background:new    ;" d="M446.534,421.31l-50.041-8.752c-15.62-2.731-30.738,6.55-35.491,21.498
	c6.994-6.363,16.733-9.499,26.678-7.76l50.041,8.752c9.415,1.647,17.41-5.873,17.218-14.73
	C452.432,421.419,449.557,421.838,446.534,421.31z M131.432,91.226l-1.483-48.891c-9.756-4.187-20.756,3.152-20.428,13.948
	l1.54,50.776c0.172,5.673-1.171,11.063-3.675,15.764C121.674,119.347,131.889,106.285,131.432,91.226z M193.481,482.728
	l-12.827-49.153c-4.147-15.888-19.787-25.94-35.961-23.111l-50.04,8.751c-10.912,1.908-19.927-8.495-16.485-19.024l15.783-48.286
	c5.102-15.608-2.621-32.519-17.758-38.884l-46.828-19.692c-10.212-4.294-12.17-17.918-3.583-24.916l39.385-32.087
	c12.73-10.372,15.376-28.774,6.084-42.312l-28.747-41.883c-1.701-2.479-2.513-5.208-2.583-7.892l-7.332,0.828
	c-11.008,1.243-16.726,13.764-10.457,22.897l28.747,41.883c9.292,13.538,6.647,31.94-6.084,42.312L5.413,284.247
	c-8.588,6.997-6.629,20.622,3.583,24.916l46.828,19.692c15.136,6.365,22.859,23.276,17.758,38.884l-15.783,48.286
	c-3.442,10.53,5.572,20.932,16.485,19.024l50.04-8.752c16.175-2.829,31.816,7.223,35.961,23.11l12.827,49.153
	c2.797,10.719,16.005,14.597,24.152,7.092l13.262-12.215C203.322,494.839,195.551,490.66,193.481,482.728z M297.746,455.404
	c-12.078-11.124-30.669-11.124-42.747,0l-10.479,9.651c10.93-4.266,23.744-2.207,32.854,6.183l37.366,34.415
	c8.148,7.505,21.356,3.627,24.152-7.092l1.466-5.617c-1.865-0.631-3.653-1.658-5.247-3.125L297.746,455.404z M262.665,4.057
	c-6.502-3.293-15.054-1.466-19.251,5.52l-26.155,43.549c-4.653,7.746-12.149,12.809-20.403,14.59
	c12.926,2.809,26.633-2.775,33.73-14.59l26.155-43.549C258.25,7.066,260.328,5.239,262.665,4.057z"/>
<circle style="fill:#FEE050;" cx="256.005" cy="254.158" r="145.511"/>
<g style="opacity:0.05;">
	<path d="M277.13,378.537c-80.364,0-145.511-65.148-145.511-145.511c0-34.8,12.222-66.741,32.601-91.78
		c-32.783,26.681-53.729,67.346-53.729,112.909c0,80.363,65.147,145.511,145.511,145.511c45.563,0,86.229-20.948,112.909-53.731
		C343.872,366.314,311.93,378.537,277.13,378.537z"/>
</g>
</svg>