<?xml version="1.0" encoding="UTF-8" standalone="no"?>
<!-- Uploaded to: SVG Repo, www.svgrepo.com, Generator: SVG Repo Mixer Tools -->

<svg
   width="800px"
   height="800px"
   viewBox="0 0 24 24"
   fill="none"
   version="1.1"
   id="svg3"
   sodipodi:docname="user.svg"
   inkscape:version="1.3.2 (091e20e, 2023-11-25, custom)"
   xmlns:inkscape="http://www.inkscape.org/namespaces/inkscape"
   xmlns:sodipodi="http://sodipodi.sourceforge.net/DTD/sodipodi-0.dtd"
   xmlns="http://www.w3.org/2000/svg"
   xmlns:svg="http://www.w3.org/2000/svg">
  <defs
     id="defs3" />
  <sodipodi:namedview
     id="namedview3"
     pagecolor="#ffffff"
     bordercolor="#000000"
     borderopacity="0.25"
     inkscape:showpageshadow="2"
     inkscape:pageopacity="0.0"
     inkscape:pagecheckerboard="0"
     inkscape:deskcolor="#d1d1d1"
     inkscape:zoom="0.79125"
     inkscape:cx="400"
     inkscape:cy="400"
     inkscape:window-width="1600"
     inkscape:window-height="829"
     inkscape:window-x="-8"
     inkscape:window-y="-8"
     inkscape:window-maximized="1"
     inkscape:current-layer="svg3" />
  <path
     opacity="0.4"
     d="m 23.933649,7.0441421 v 9.9050809 c 0,3.321393 -1.534549,5.602635 -4.234881,6.465489 -0.785119,0.271856 -1.689194,0.401876 -2.676541,0.401876 H 7.0536018 c -0.9873458,0 -1.8914217,-0.13002 -2.6765402,-0.401876 C 1.6767299,22.551858 0.14218009,20.270616 0.14218009,16.949223 V 7.0441421 c 0,-4.3024454 2.58137441,-6.86736485 6.91142171,-6.86736485 h 9.9686252 c 4.330047,0 6.911422,2.56491945 6.911422,6.86736485 z"
     fill="#292D32"
     id="path1"
     style="fill:#1a264c;fill-opacity:1;stroke-width:1.18578" />
  <path
     d="m 20.3606,20.20583 c -0.827083,0.344423 -1.779481,0.509146 -2.819602,0.509146 H 7.0394878 c -1.0401196,0 -1.9925182,-0.164723 -2.8196013,-0.509146 0.4386047,-3.953371 3.8973155,-7.023223 8.0702625,-7.023223 4.17301,0 7.631847,3.069852 8.070451,7.023223 z"
     fill="#292D32"
     id="path2"
     style="fill:#1a264c;fill-opacity:1;stroke-width:1.36988" />
  <path
     d="m 16.2999,7.611827 c 0,2.513978 -1.947376,4.558173 -4.357253,4.558173 -2.4098779,0 -4.3572294,-2.044195 -4.3572294,-4.558173 0,-2.5139531 1.9473515,-4.5454763 4.3572294,-4.5454763 2.409877,0 4.357253,2.0315232 4.357253,4.5454763 z"
     fill="#292D32"
     id="path3"
     style="fill:#1a254c;fill-opacity:1;stroke-width:1.24312" />
</svg>
