<?xml version="1.0" ?>
<!DOCTYPE svg  PUBLIC '-//W3C//DTD SVG 1.1//EN'  'http://www.w3.org/Graphics/SVG/1.1/DTD/svg11.dtd'>
<!-- Uploaded to: SVG Repo, www.svgrepo.com, Generator: SVG Repo Mixer Tools -->
<svg width="800px" height="800px" viewBox="0 0 100 100" enable-background="new 0 0 100 100" id="Layer_1" version="1.1" xml:space="preserve" xmlns="http://www.w3.org/2000/svg" xmlns:xlink="http://www.w3.org/1999/xlink">
<g>
<g>
<rect clip-rule="evenodd" fill="#F2F2F2" fill-rule="evenodd" height="83.437" width="67.025" x="9.012" y="7.604"/>
<path d="M77.454,92.458H7.595V6.187h69.859V92.458z M10.429,89.624H74.62V9.021H10.429V89.624z"/>
</g>
<g>
<rect clip-rule="evenodd" fill="#FF7C24" fill-rule="evenodd" height="10.481" width="17.952" x="46.695" y="34.866"/>
</g>
<g>
<rect height="2.834" width="19.463" x="20.504" y="35.575"/>
</g>
<g>
<rect height="2.834" width="15.561" x="20.718" y="42.508"/>
</g>
<g>
<rect height="2.833" width="15.562" x="20.813" y="49.514"/>
</g>
<g>
<rect height="2.833" width="27.128" x="20.718" y="56.753"/>
</g>
<g>
<rect height="2.833" width="23.51" x="20.718" y="63.688"/>
</g>
<g>
<rect clip-rule="evenodd" fill="#39B6CC" fill-rule="evenodd" height="9.004" width="44.095" x="20.553" y="19.064"/>
</g>
<g>
<rect height="2.833" width="26.272" x="20.718" y="70.32"/>
</g>
<g>
<rect height="2.834" width="32.8" x="20.718" y="77.253"/>
</g>
<g>
<rect height="2.834" width="3.235" x="38.304" y="42.508"/>
</g>
<g>
<path clip-rule="evenodd" d="M77.931,71.902l4.287,4.427l-6.644,6.437l-4.309-4.457    C74.147,76.998,76.504,74.726,77.931,71.902L77.931,71.902z" fill="#F2F2F2" fill-rule="evenodd"/>
<path d="M75.542,84.77l-6.692-6.92l1.828-0.831c2.579-1.174,4.706-3.218,5.989-5.756l0.897-1.776l6.656,6.874L75.542,84.77z     M73.584,78.669l2.023,2.091l4.605-4.463l-2.007-2.074C76.994,76.012,75.414,77.531,73.584,78.669z"/>
</g>
<g>
<polygon clip-rule="evenodd" fill="#39B6CC" fill-rule="evenodd" points="83.267,75.319 91.984,84.338 83.247,92.779     74.535,83.761   "/>
<path d="M83.213,94.783L72.531,83.726l10.771-10.41l10.687,11.056L83.213,94.783z M76.538,83.794l6.744,6.981l6.698-6.472    l-6.748-6.981L76.538,83.794z"/>
</g>
<g>
<path clip-rule="evenodd" d="M66.124,50.799c7.742,0,14.018,6.276,14.018,14.019    s-6.275,14.019-14.018,14.019c-7.743,0-14.019-6.276-14.019-14.019S58.381,50.799,66.124,50.799L66.124,50.799z" fill="#F2F2F2" fill-rule="evenodd"/>
<path d="M66.124,80.253c-8.511,0-15.435-6.924-15.435-15.435s6.924-15.435,15.435-15.435S81.56,56.307,81.56,64.818    S74.635,80.253,66.124,80.253z M66.124,52.216c-6.949,0-12.601,5.653-12.601,12.602s5.651,12.601,12.601,12.601    c6.948,0,12.602-5.652,12.602-12.601S73.072,52.216,66.124,52.216z"/>
</g>
<g>
<rect height="2.833" width="10.313" x="39.902" y="49.514"/>
</g>
<g>
<path d="M76.404,65.586H73.57c0-0.636-0.068-1.255-0.205-1.84c-0.043-0.186-0.096-0.385-0.169-0.63l2.717-0.808    c0.091,0.304,0.158,0.559,0.215,0.801C76.31,63.901,76.404,64.735,76.404,65.586z M72.438,61.433    c-1.489-2.5-4.203-4.058-7.084-4.061l0.004-2.834c3.871,0.005,7.518,2.091,9.516,5.445L72.438,61.433z"/>
</g>
</g>
</svg>