<?xml version="1.0" encoding="UTF-8" standalone="no"?>
<!-- Uploaded to: SVG Repo, www.svgrepo.com, Generator: SVG Repo Mixer Tools -->

<svg
   height="800px"
   width="800px"
   version="1.1"
   id="Capa_1"
   viewBox="0 0 400 400"
   xml:space="preserve"
   sodipodi:docname="view.svg"
   inkscape:version="1.3.2 (091e20e, 2023-11-25, custom)"
   xmlns:inkscape="http://www.inkscape.org/namespaces/inkscape"
   xmlns:sodipodi="http://sodipodi.sourceforge.net/DTD/sodipodi-0.dtd"
   xmlns="http://www.w3.org/2000/svg"
   xmlns:svg="http://www.w3.org/2000/svg"><defs
   id="defs18" /><sodipodi:namedview
   id="namedview18"
   pagecolor="#ffffff"
   bordercolor="#000000"
   borderopacity="0.25"
   inkscape:showpageshadow="2"
   inkscape:pageopacity="0.0"
   inkscape:pagecheckerboard="0"
   inkscape:deskcolor="#d1d1d1"
   inkscape:zoom="0.79125"
   inkscape:cx="400"
   inkscape:cy="398.73618"
   inkscape:window-width="1600"
   inkscape:window-height="829"
   inkscape:window-x="-8"
   inkscape:window-y="-8"
   inkscape:window-maximized="1"
   inkscape:current-layer="Capa_1" />
<g
   id="g18"
   style="fill:#9e9e9e;fill-opacity:1"
   transform="matrix(0.99684044,0,0,0.99842022,0.63191158,1.263823)">
	<g
   id="g17"
   style="fill:#9e9e9e;fill-opacity:1">
		<path
   style="fill:#9e9e9e;fill-opacity:1"
   d="M 400,318.644 C 400,363.574 364.02,400 319.633,400 H 80.365 C 35.98,400 0,363.574 0,318.644 V 81.356 C 0,36.423 35.98,0 80.365,0 H 319.633 C 364.02,0 400,36.423 400,81.356 Z"
   id="path1" />
		
		
		
		
	</g>
</g><path
   style="fill:#eff2fa;stroke-width:0.750052"
   d="M 300.22004,6.893205 82.963174,5.148025 C 75.222606,5.085849 68.8903,10.635921 68.820625,17.545124 L 65.414494,355.31029 c -0.06978,6.9085 6.149675,12.5601 13.890244,12.62228 l 266.313852,2.13924 c 7.74057,0.0622 14.07286,-5.4886 14.14253,-12.39709 l 2.9646,-293.980897 z"
   id="path1-0" /><g
   id="g2"
   transform="matrix(0.79390499,0.0063773,-0.00714539,0.70856358,-15.152363,4.3598819)">
	<path
   style="fill:#d7deed"
   d="m 476.69,79.448 h -69.517 c -5.485,0 -9.931,-4.446 -9.931,-9.931 V 0 Z"
   id="path2" />
	
		<rect
   x="176.035"
   y="329.23499"
   transform="matrix(0.7071,0.7071,-0.7071,0.7071,309.1729,-27.6053)"
   style="fill:#d7deed"
   width="23.747999"
   height="60.334999"
   id="rect2" />
</g><path
   style="fill:#c7cfe2;stroke-width:0.750052"
   d="m 129.91689,249.77692 c 4.0119,4.33214 8.43031,8.34867 13.21125,12.006 l 12.03097,-10.54614 -13.21127,-12.00528 z"
   id="path3" /><path
   style="fill:#707487;stroke-width:0.750052"
   d="m 23.357147,364.75922 -10.954862,-9.95271 c -4.0345102,-3.66552 -3.9751184,-9.55509 0.131872,-13.1552 L 101.27851,263.8596 c 4.10699,-3.60011 10.70433,-3.5471 14.73727,0.11766 l 10.95486,9.95342 c 4.03451,3.66551 3.97512,9.55509 -0.1318,13.15521 l -88.742842,77.79104 c -4.106977,3.59941 -10.70512,3.54639 -14.738851,-0.11766 z"
   id="path4" /><path
   style="fill:#5b5d6e;stroke-width:0.750052"
   d="m 22.861958,351.03492 88.745172,-77.7917 c 4.10697,-3.60012 10.70431,-3.54712 14.73725,0.11766 l 0.63884,0.58054 c 0,0 -0.007,-0.007 -0.0114,-0.0108 l -10.9546,-9.954 c -4.03375,-3.66409 -10.6319,-3.71709 -14.73807,-0.11766 l -88.745171,77.79313 c -4.1069872,3.6001 -4.166379,9.48968 -0.131874,13.15519 l 10.319942,9.37646 c -4.025764,-3.66686 -3.964848,-9.55004 0.138938,-13.14805 z"
   id="path5" /><path
   style="fill:#c7cfe2;stroke-width:0.750052"
   d="m 120.36147,292.76449 6.47889,-5.67929 c 4.10699,-3.60012 4.16637,-9.4897 0.13196,-13.15519 l -10.95487,-9.95344 c -4.03373,-3.66407 -10.63187,-3.71708 -14.73805,-0.11766 l -6.478107,5.6786 z"
   id="path6" /><g
   style="opacity:0.97"
   id="g7"
   transform="matrix(0.79390499,0.0063773,-0.00714539,0.70856358,-15.152363,4.3598819)">
	<path
   style="fill:#afb9d2"
   d="m 154.981,386.097 8.087,-8.087 c 5.127,-5.127 13.437,-5.127 18.563,-10e-4 l 0.811,0.81 c 0,0 -0.008,-0.01 -0.012,-0.015 l -13.924,-13.922 c -5.127,-5.126 -13.438,-5.126 -18.564,10e-4 l -8.087,8.087 z"
   id="path7" />
</g><ellipse
   style="fill:#ffffff;stroke-width:0.750053"
   cx="216.17302"
   cy="185.88297"
   id="circle7"
   transform="matrix(0.99996774,0.00803255,-0.01008381,0.99994916,0,0)"
   rx="70.085022"
   ry="62.552338" /><g
   id="g11"
   transform="matrix(0.79390499,0.0063773,-0.00714539,0.70856358,-15.152363,4.3598819)">
	<path
   style="fill:#d7deed"
   d="m 291.311,379.586 c -68.147,0 -123.586,-55.439 -123.586,-123.586 0,-68.147 55.439,-123.586 123.586,-123.586 68.147,0 123.586,55.439 123.586,123.586 0,68.147 -55.44,123.586 -123.586,123.586 z m 0,-229.517 c -58.41,0 -105.931,47.521 -105.931,105.931 0,58.41 47.521,105.931 105.931,105.931 58.41,0 105.931,-47.521 105.931,-105.931 0,-58.41 -47.522,-105.931 -105.931,-105.931 z"
   id="path8" />
	<path
   style="fill:#d7deed"
   d="M 344.276,264.828 H 238.345 c -4.875,0 -8.828,-3.953 -8.828,-8.828 v 0 c 0,-4.875 3.953,-8.828 8.828,-8.828 h 105.931 c 4.875,0 8.828,3.953 8.828,8.828 v 0 c 0,4.875 -3.953,8.828 -8.828,8.828 z"
   id="path9" />
	<path
   style="fill:#d7deed"
   d="m 326.621,229.517 h -26.483 c -4.875,0 -8.828,-3.953 -8.828,-8.828 v 0 c 0,-4.875 3.953,-8.828 8.828,-8.828 h 26.483 c 4.875,0 8.828,3.953 8.828,8.828 v 0 c -0.001,4.876 -3.953,8.828 -8.828,8.828 z"
   id="path10" />
	<path
   style="fill:#d7deed"
   d="m 256,300.138 h -8.828 c -4.875,0 -8.828,-3.953 -8.828,-8.828 v 0 c 0,-4.875 3.953,-8.828 8.828,-8.828 H 256 c 4.875,0 8.828,3.953 8.828,8.828 v 0 c 0,4.875 -3.953,8.828 -8.828,8.828 z"
   id="path11" />
</g><g
   id="g13"
   transform="matrix(0.79390499,0.0063773,-0.00714539,0.70856358,-15.152363,4.3598819)">
	<path
   style="fill:#c7cfe2"
   d="m 264.828,229.517 h -17.655 c -4.875,0 -8.828,-3.953 -8.828,-8.828 v 0 c 0,-4.875 3.953,-8.828 8.828,-8.828 h 17.655 c 4.875,0 8.828,3.953 8.828,8.828 v 0 c -0.001,4.876 -3.953,8.828 -8.828,8.828 z"
   id="path12" />
	<path
   style="fill:#c7cfe2"
   d="m 326.621,300.138 h -35.31 c -4.875,0 -8.828,-3.953 -8.828,-8.828 v 0 c 0,-4.875 3.953,-8.828 8.828,-8.828 h 35.31 c 4.875,0 8.828,3.953 8.828,8.828 v 0 c -0.001,4.875 -3.953,8.828 -8.828,8.828 z"
   id="path13" />
</g>
</svg>
